<svg width="18" height="16" viewBox="0 0 18 16" fill="none" xmlns="http://www.w3.org/2000/svg">
<path d="M15.3702 3.15078C16.0844 2.70396 16.6189 2.0004 16.8737 1.17145C16.2025 1.58816 15.4682 1.88171 14.7025 2.03939C13.6409 0.864238 11.9589 0.57826 10.5963 1.34125C9.23376 2.10424 8.528 3.72731 8.8734 5.30352C6.12426 5.15909 3.56295 3.8002 1.82683 1.56498C0.920787 3.20032 1.3838 5.29083 2.88493 6.34238C2.34211 6.32412 1.81132 6.17032 1.33682 5.89382C1.33682 5.90883 1.33682 5.92383 1.33682 5.93884C1.33714 7.64232 2.48446 9.10966 4.08008 9.44726C3.57657 9.59061 3.04843 9.61171 2.53595 9.50896C2.98469 10.9658 4.26775 11.9638 5.73017 11.9935C4.51896 12.9883 3.02315 13.5278 1.48343 13.5251C1.21051 13.5256 0.937815 13.5091 0.666748 13.4759C2.23031 14.5273 4.05009 15.0854 5.90865 15.0834C8.49434 15.102 10.9793 14.0353 12.8076 12.122C14.6359 10.2086 15.6551 7.60822 15.6371 4.90249C15.6371 4.74741 15.6337 4.59317 15.6268 4.43976C16.2964 3.93334 16.8743 3.30598 17.3334 2.58716C16.7096 2.87653 16.0478 3.0665 15.3702 3.15078Z" fill="white"/>
</svg>
