<svg width="16" height="16" viewBox="0 0 16 16" fill="none" xmlns="http://www.w3.org/2000/svg">
<path d="M8.17445 6.63174V9.53043H12.2903C11.9072 11.3725 10.3037 12.4308 8.17445 12.4308C5.69441 12.3974 3.70187 10.4218 3.70187 7.99625C3.70187 5.57068 5.69441 3.59508 8.17445 3.5617C9.20531 3.56049 10.2044 3.91034 11.0002 4.55117L13.2334 2.36728C10.6718 0.164975 6.93076 -0.118286 4.05307 1.67217C1.17537 3.46263 -0.14741 6.8965 0.80702 10.0988C1.76145 13.301 4.76371 15.502 8.17445 15.5C12.0111 15.5 15.5 12.771 15.5 7.99583C15.4941 7.53607 15.4365 7.07834 15.3282 6.6309L8.17445 6.63174Z" fill="white"/>
</svg>
