<svg width="20" height="20" viewBox="0 0 20 20" fill="none" xmlns="http://www.w3.org/2000/svg">
<g clip-path="url(#clip0_790_472)">
<path d="M18.3932 3.3084C16.218 1.13382 12.6795 1.13382 10.5049 3.3084L9.99983 3.81319L9.49504 3.3084C7.32046 1.13353 3.78163 1.13353 1.60706 3.3084C-0.523361 5.43882 -0.537195 8.81576 1.57498 11.1637C3.50142 13.3044 9.18304 17.9294 9.4241 18.1251C9.58775 18.2581 9.78467 18.3229 9.9804 18.3229C9.98688 18.3229 9.99335 18.3229 9.99953 18.3226C10.202 18.332 10.406 18.2626 10.575 18.1251C10.816 17.9294 16.4982 13.3044 18.4253 11.1634C20.5371 8.81576 20.5233 5.43882 18.3932 3.3084ZM17.1125 9.98222C15.6105 11.6508 11.4818 15.0922 9.99953 16.3134C8.51724 15.0925 4.38944 11.6514 2.88773 9.98252C1.41427 8.34482 1.40044 6.01248 2.85564 4.55727C3.59885 3.81436 4.57488 3.44261 5.5509 3.44261C6.52693 3.44261 7.50295 3.81407 8.24616 4.55727L9.3564 5.66752C9.48856 5.79968 9.65516 5.87856 9.82999 5.90623C10.1137 5.96715 10.4216 5.88798 10.6424 5.66781L11.7532 4.55727C13.2399 3.07116 15.6582 3.07145 17.144 4.55727C18.5992 6.01248 18.5854 8.34482 17.1125 9.98222Z" fill="white"/>
</g>
<defs>
<clipPath id="clip0_790_472">
<rect width="20" height="20" fill="white"/>
</clipPath>
</defs>
</svg>
