<svg width="18" height="20" viewBox="0 0 18 20" fill="none" xmlns="http://www.w3.org/2000/svg">
<path d="M0.915456 0.189126C1.23969 -0.0445705 1.67194 -0.062758 2.01466 0.142875L17.0147 9.14287C17.3159 9.3236 17.5002 9.64911 17.5002 10.0004C17.5002 10.3516 17.3159 10.6771 17.0147 10.8579L2.01466 19.8579C1.67194 20.0635 1.23969 20.0453 0.915456 19.8116C0.59122 19.5779 0.437277 19.1736 0.523979 18.7834L2.25355 11.0004L7.50012 11.0004C8.05241 11.0004 8.50012 10.5527 8.50012 10.0004C8.50012 9.44808 8.05241 9.00037 7.50012 9.00037L2.25355 9.00037L0.523979 1.2173C0.437277 0.827137 0.59122 0.422822 0.915456 0.189126Z" fill="white"/>
</svg>
