<svg width="24" height="25" viewBox="0 0 24 25" fill="none" xmlns="http://www.w3.org/2000/svg">
<g clip-path="url(#clip0_790_206)">
<path d="M16.6675 16.2915L18.2946 13.7138C21.9249 7.96288 21.6849 2.95358 21.4256 1.11031C21.3983 0.910434 21.284 0.734158 21.115 0.625667C20.945 0.517417 20.7371 0.489389 20.5438 0.548202C18.7529 1.09358 14.0776 3.00201 10.4441 8.75816L8.81652 11.3365L8.13801 11.3566C6.82964 11.3965 5.62569 12.0841 4.92652 13.1917L2.98441 16.2683C2.86939 16.4505 2.8636 16.6825 2.96943 16.8707C3.07632 17.0588 3.27777 17.1722 3.4936 17.166L5.69018 17.1123C6.30668 17.0978 6.91378 17.2646 7.43558 17.594L8.57257 18.3117L7.63141 19.8027C7.45826 20.0769 7.54014 20.4392 7.81378 20.6119L8.72416 21.1866C8.99779 21.3593 9.36 21.2774 9.53314 21.0031L10.4743 19.5122L11.6106 20.2295C12.1324 20.5589 12.5456 21.0343 12.7971 21.5995L13.6926 23.6041C13.7798 23.8016 13.9688 23.9347 14.1846 23.9503C14.4001 23.9649 14.607 23.8599 14.722 23.6776L16.6641 20.601C17.3625 19.4947 17.4647 18.1117 16.9394 16.9125L16.6675 16.2915ZM15.2919 9.77527C14.3475 9.17916 14.0644 7.92913 14.6605 6.98479C15.257 6.0398 16.5069 5.75839 17.4512 6.3545C18.3949 6.9502 18.6785 8.19957 18.0819 9.14456C17.4858 10.0889 16.2356 10.371 15.2919 9.77527Z" fill="white"/>
</g>
<defs>
<clipPath id="clip0_790_206">
<rect width="24" height="24" fill="white" transform="translate(0 0.5)"/>
</clipPath>
</defs>
</svg>
