<svg width="18" height="18" viewBox="0 0 18 18" fill="none" xmlns="http://www.w3.org/2000/svg">
<path d="M0.834961 9.05341C0.835931 13.1781 3.81696 16.6902 7.86579 17.3366V11.4766H5.75163V9.05341H7.8683V7.20879C7.77367 6.33472 8.0704 5.4636 8.67799 4.83168C9.28559 4.19977 10.1411 3.87255 11.0125 3.93878C11.6379 3.94894 12.2618 4.00499 12.8791 4.10647V6.16825H11.8258C11.4632 6.12047 11.0986 6.24097 10.8348 6.49581C10.571 6.75066 10.4364 7.11227 10.4691 7.47877V9.05341H12.7783L12.4091 11.4774H10.4691V17.3366C14.8479 16.6403 17.9184 12.6167 17.4562 8.18063C16.9941 3.74456 13.161 0.449033 8.73398 0.681497C4.30693 0.91396 0.835665 4.59304 0.834961 9.05341Z" fill="white"/>
</svg>
