<svg width="30" height="30" viewBox="0 0 30 30" fill="none" xmlns="http://www.w3.org/2000/svg">
<path d="M2.80418 16.1778L2.80417 16.1778C2.19922 16.7337 2.19922 17.6349 2.80417 18.1907L13.7579 28.2551C14.3629 28.8109 15.3437 28.8109 15.9487 28.2551C16.5536 27.6993 16.5536 26.7981 15.9487 26.2422L4.99492 16.1778C4.38997 15.622 3.40914 15.622 2.80418 16.1778Z" fill="#E41B9F"/>
<path fill-rule="evenodd" clip-rule="evenodd" d="M0.512989 8.35082L6.11256 3.20585C9.81928 -0.199915 14.0518 0.0657856 17.3642 3.10929C17.7849 3.49575 18.3106 4.17204 18.6261 4.60682C18.7576 4.77594 18.8364 4.89673 18.9415 4.99329C19.1519 5.18656 19.3622 5.23488 19.8091 5.11408C22.5695 4.41363 24.9881 5.18656 27.3015 7.31215C30.535 10.2831 30.8767 14.2686 26.7757 18.0368L18.9153 25.259C18.4946 25.6455 18.1529 25.6213 17.7323 25.2349L0.539274 9.43773C0.118653 9.05127 0.0923675 8.73728 0.512989 8.35082ZM12.0019 11.0802L13.3426 9.84827C14.0262 9.2203 14.1313 8.35074 13.3163 7.60197C12.5277 6.87729 11.555 6.94976 10.8715 7.57781L9.53073 8.80968C9.11012 9.19614 9.13641 9.51013 9.55703 9.89659L10.8189 11.0561C11.2395 11.4425 11.5813 11.4667 12.0019 11.0802ZM18.4164 16.9746L21.9392 13.7379C22.9645 12.7958 23.1748 11.9263 22.3072 11.1292C21.466 10.3562 20.4933 10.5253 19.468 11.4673L15.9454 14.704C15.5247 15.0905 15.551 15.4045 15.9716 15.791L17.2335 16.9504C17.6541 17.3369 17.9958 17.3611 18.4164 16.9746Z" fill="#2926CF"/>
</svg>
