<svg width="29" height="26" viewBox="0 0 29 26" fill="none" xmlns="http://www.w3.org/2000/svg">
<path fill-rule="evenodd" clip-rule="evenodd" d="M8.96281 23.3127L12.6307 24.2858V23.0133L12.9301 22.7139H15.0259V24.2109V25.2589H12.7804L10.0107 24.0612L8.96281 23.3127Z" fill="#CDBDB2"/>
<path fill-rule="evenodd" clip-rule="evenodd" d="M20.9416 23.3127L17.3487 24.2858V23.0133L17.0493 22.7139H14.9534V24.2109V25.2589H17.199L19.9685 24.0612L20.9416 23.3127Z" fill="#CDBDB2"/>
<path fill-rule="evenodd" clip-rule="evenodd" d="M12.9357 20.5423L12.6363 23.0124L13.0105 22.713H16.9028L17.352 23.0124L17.0525 20.5423L16.4537 20.168L13.4596 20.2429L12.9357 20.5423Z" fill="#393939"/>
<path fill-rule="evenodd" clip-rule="evenodd" d="M10.9113 3.84946L12.7077 8.0412L13.5312 20.2422H16.4504L17.3486 8.0412L18.9954 3.84946H10.9113Z" fill="#F89C35"/>
<path fill-rule="evenodd" clip-rule="evenodd" d="M3.05376 13.0581L0.957886 19.1211L6.19756 18.8217H9.56586V16.2019L9.41616 10.8125L8.66763 11.4113L3.05376 13.0581Z" fill="#F89D35"/>
<path fill-rule="evenodd" clip-rule="evenodd" d="M7.02077 13.7309L13.1587 13.8806L12.4851 17.0244L9.56575 16.2759L7.02077 13.7309Z" fill="#D87C30"/>
<path fill-rule="evenodd" clip-rule="evenodd" d="M7.02077 13.8052L9.56575 16.2005V18.5958L7.02077 13.8052Z" fill="#EA8D3A"/>
<path fill-rule="evenodd" clip-rule="evenodd" d="M9.56355 16.2749L12.5576 17.0234L13.5308 20.2421L12.8571 20.6163L9.56355 18.6702V16.2749Z" fill="#F89D35"/>
<path fill-rule="evenodd" clip-rule="evenodd" d="M9.56163 18.6702L8.96281 23.3111L12.9301 20.5416L9.56163 18.6702Z" fill="#EB8F35"/>
<path fill-rule="evenodd" clip-rule="evenodd" d="M13.155 13.8786L13.5293 20.2411L12.4065 16.985L13.155 13.8786Z" fill="#EA8E3A"/>
<path fill-rule="evenodd" clip-rule="evenodd" d="M6.12038 18.7451L9.56359 18.6702L8.96477 23.3111L6.12038 18.7451Z" fill="#D87C30"/>
<path fill-rule="evenodd" clip-rule="evenodd" d="M2.60464 25.3335L8.96704 23.3124L6.12265 18.7464L0.957886 19.1206L2.60464 25.3335Z" fill="#EB8F35"/>
<path fill-rule="evenodd" clip-rule="evenodd" d="M12.7096 8.04175L9.49097 10.7364L7.02077 13.7305L13.1587 13.9552L12.7096 8.04175Z" fill="#E8821E"/>
<path fill-rule="evenodd" clip-rule="evenodd" d="M8.96281 23.311L12.9301 20.5415L12.6306 22.9368V24.2841L9.93596 23.7601L8.96281 23.311Z" fill="#DFCEC3"/>
<path fill-rule="evenodd" clip-rule="evenodd" d="M20.9416 23.311L17.0493 20.5415L17.3487 22.9368V24.2841L20.0434 23.7601L20.9416 23.311Z" fill="#DFCEC3"/>
<path fill-rule="evenodd" clip-rule="evenodd" d="M11.5127 15.2259L12.3362 16.9475L9.41686 16.199L11.5127 15.2259Z" fill="#393939"/>
<path fill-rule="evenodd" clip-rule="evenodd" d="M2.52976 0.331726L12.7097 8.04147L10.9882 3.84973L2.52976 0.331726Z" fill="#E88F35"/>
<path fill-rule="evenodd" clip-rule="evenodd" d="M2.52889 0.331726L1.18155 4.44861L1.93007 8.93976L1.40611 9.23918L2.15463 9.91285L1.55581 10.4368L2.37919 11.1853L1.85522 11.6345L3.05286 13.1315L8.6668 11.4099C11.4114 9.21422 12.7587 8.09144 12.7088 8.04154C12.6589 7.99163 9.26562 5.4217 2.52889 0.331726Z" fill="#8E5A30"/>
<path fill-rule="evenodd" clip-rule="evenodd" d="M26.8566 13.0581L28.9525 19.1211L23.7128 18.8217H20.3445V16.2019L20.4942 10.8125L21.2427 11.4113L26.8566 13.0581Z" fill="#F89D35"/>
<path fill-rule="evenodd" clip-rule="evenodd" d="M22.8896 13.7309L16.7517 13.8806L17.4253 17.0244L20.3446 16.2759L22.8896 13.7309Z" fill="#D87C30"/>
<path fill-rule="evenodd" clip-rule="evenodd" d="M22.8896 13.8052L20.3446 16.2005V18.5958L22.8896 13.8052Z" fill="#EA8D3A"/>
<path fill-rule="evenodd" clip-rule="evenodd" d="M20.3475 16.2739L17.3534 17.0225L16.3803 20.2412L17.054 20.6154L20.3475 18.6692V16.2739Z" fill="#F89D35"/>
<path fill-rule="evenodd" clip-rule="evenodd" d="M20.342 18.6702L20.9409 23.3111L17.0485 20.6164L20.342 18.6702Z" fill="#EB8F35"/>
<path fill-rule="evenodd" clip-rule="evenodd" d="M16.7492 13.8795L16.3748 20.2421L17.4977 16.986L16.7492 13.8795Z" fill="#EA8E3A"/>
<path fill-rule="evenodd" clip-rule="evenodd" d="M23.7876 18.7451L20.3444 18.6702L20.9432 23.3111L23.7876 18.7451Z" fill="#D87C30"/>
<path fill-rule="evenodd" clip-rule="evenodd" d="M27.3057 25.3334L20.9433 23.3124L23.7877 18.7464L28.9525 19.1206L27.3057 25.3334Z" fill="#EB8F35"/>
<path fill-rule="evenodd" clip-rule="evenodd" d="M17.2008 8.04175L20.4194 10.7364L22.8896 13.7305L16.7517 13.9552L17.2008 8.04175Z" fill="#E8821E"/>
<path fill-rule="evenodd" clip-rule="evenodd" d="M18.3981 15.2259L17.5746 16.9475L20.4939 16.199L18.3981 15.2259Z" fill="#393939"/>
<path fill-rule="evenodd" clip-rule="evenodd" d="M27.3808 0.331726L17.2009 8.04147L18.9224 3.84973L27.3808 0.331726Z" fill="#E88F35"/>
<path fill-rule="evenodd" clip-rule="evenodd" d="M27.381 0.331726L28.7283 4.44862L27.9798 8.93977L28.5038 9.23918L27.7552 9.91286L28.3541 10.4368L27.5307 11.1853L28.0546 11.6345L26.857 13.1315L21.2431 11.4099C18.4985 9.21423 17.1511 8.09144 17.201 8.04154C17.2509 7.99164 20.6442 5.4217 27.381 0.331726Z" fill="#8E5A30"/>
</svg>
